<svg id="Capa_1" fill="#fff" enable-background="new 0 0 512 512" height="512" viewBox="0 0 512 512" width="512" xmlns="http://www.w3.org/2000/svg">
<g>
<path d="m479.47 40.081h-446.94c-17.937 0-32.53 14.592-32.53 32.53v366.778c0 17.938 14.593 32.53 32.53 32.53h446.94c17.938 0 32.53-14.593 32.53-32.53v-366.778c0-17.938-14.593-32.53-32.53-32.53zm-446.94 15h446.94c9.666 0 17.53 7.864 17.53 17.53v63.664h-482v-63.664c0-9.666 7.864-17.53 17.53-17.53zm446.94 401.838h-446.94c-9.666 0-17.53-7.864-17.53-17.53v-288.115h482v288.115c0 9.666-7.864 17.53-17.53 17.53z"/>
<path d="m55.597 119.209c12.976 0 23.532-10.557 23.532-23.532s-10.557-23.532-23.532-23.532-23.533 10.557-23.533 23.532 10.557 23.532 23.533 23.532zm0-32.064c4.705 0 8.532 3.828 8.532 8.532s-3.828 8.532-8.532 8.532-8.532-3.828-8.532-8.532 3.827-8.532 8.532-8.532z"/>
<path d="m119.726 119.209c12.976 0 23.533-10.557 23.533-23.532s-10.557-23.532-23.533-23.532-23.532 10.557-23.532 23.532 10.556 23.532 23.532 23.532zm0-32.064c4.705 0 8.533 3.828 8.533 8.532s-3.828 8.532-8.533 8.532-8.532-3.828-8.532-8.532 3.827-8.532 8.532-8.532z"/>
<path d="m183.855 119.209h272.548c12.976 0 23.532-10.557 23.532-23.532s-10.557-23.532-23.532-23.532h-232.47c-4.142 0-7.5 3.358-7.5 7.5s3.358 7.5 7.5 7.5h232.471c4.705 0 8.532 3.828 8.532 8.532s-3.828 8.532-8.532 8.532h-272.549c-4.705 0-8.532-3.828-8.532-8.532s3.828-8.532 8.532-8.532h8.016c4.142 0 7.5-3.358 7.5-7.5s-3.358-7.5-7.5-7.5h-8.016c-12.976 0-23.532 10.557-23.532 23.532s10.556 23.532 23.532 23.532z"/>
<path d="m256 216.436c-58.493 0-114.04 25.446-156.407 71.65-8.232 8.979-8.232 23.044 0 32.022 42.368 46.205 97.915 71.65 156.407 71.65s114.039-25.446 156.407-71.65c8.232-8.978 8.232-23.044 0-32.022-42.367-46.205-97.914-71.65-156.407-71.65zm145.352 93.534c-39.493 43.069-91.113 66.788-145.352 66.788s-105.859-23.719-145.352-66.788c-3.02-3.293-3.02-8.454 0-11.747 39.493-43.069 91.113-66.788 145.352-66.788s105.859 23.719 145.352 66.788c3.02 3.294 3.02 8.454 0 11.747z"/>
<path d="m291.929 271.256c-3.449 2.293-4.387 6.949-2.093 10.398 4.423 6.653 6.761 14.413 6.761 22.442 0 22.385-18.211 40.597-40.597 40.597s-40.597-18.211-40.597-40.597 18.212-40.596 40.597-40.596c4.653 0 9.212.779 13.55 2.314 3.905 1.385 8.191-.662 9.573-4.567s-.662-8.19-4.567-9.573c-5.949-2.106-12.192-3.174-18.556-3.174-30.656 0-55.597 24.94-55.597 55.597s24.94 55.597 55.597 55.597 55.597-24.94 55.597-55.597c0-10.994-3.206-21.625-9.27-30.747-2.293-3.449-6.948-4.386-10.398-2.094z"/>
<path d="m256 199.371c4.142 0 7.5-3.358 7.5-7.5v-16.032c0-4.142-3.358-7.5-7.5-7.5s-7.5 3.358-7.5 7.5v16.032c0 4.142 3.358 7.5 7.5 7.5z"/>
<path d="m193.179 203.241c1.314 2.628 3.962 4.147 6.714 4.147 1.127 0 2.271-.255 3.348-.793 3.705-1.852 5.207-6.357 3.354-10.062l-8.016-16.032c-1.852-3.705-6.356-5.208-10.062-3.354-3.705 1.852-5.207 6.357-3.354 10.062z"/>
<path d="m308.759 206.595c1.077.539 2.221.793 3.348.793 2.751 0 5.4-1.52 6.714-4.147l8.016-16.032c1.853-3.705.351-8.21-3.354-10.062-3.705-1.853-8.209-.351-10.062 3.354l-8.016 16.032c-1.853 3.705-.351 8.21 3.354 10.062z"/><path d="m256 408.823c-4.142 0-7.5 3.358-7.5 7.5v16.032c0 4.142 3.358 7.5 7.5 7.5s7.5-3.358 7.5-7.5v-16.032c0-4.142-3.358-7.5-7.5-7.5z"/><path d="m318.821 404.953c-1.852-3.705-6.356-5.207-10.062-3.354-3.705 1.852-5.207 6.357-3.354 10.062l8.016 16.032c1.314 2.628 3.962 4.147 6.714 4.147 1.127 0 2.271-.255 3.348-.793 3.705-1.852 5.207-6.357 3.354-10.062z"/><path d="m203.241 401.599c-3.705-1.854-8.21-.35-10.062 3.354l-8.016 16.032c-1.853 3.705-.351 8.21 3.354 10.062 1.077.539 2.221.793 3.348.793 2.751 0 5.4-1.52 6.714-4.147l8.016-16.032c1.853-3.705.351-8.21-3.354-10.062z"/></g></svg>