<?xml version="1.0" standalone="no"?>
<!DOCTYPE svg PUBLIC "-//W3C//DTD SVG 20010904//EN"
 "http://www.w3.org/TR/2001/REC-SVG-20010904/DTD/svg10.dtd">
<svg version="1.0" xmlns="http://www.w3.org/2000/svg"
 width="700.000000pt" height="700.000000pt" viewBox="0 0 700.000000 700.000000"
 preserveAspectRatio="xMidYMid meet">
<metadata>
Created by potrace 1.11, written by Peter Selinger 2001-2013
</metadata>
<g transform="translate(0.000000,700.000000) scale(0.100000,-0.100000)"
fill="#000000" stroke="none">
<path d="M476 6984 c-178 -43 -333 -167 -411 -329 -70 -145 -65 139 -62 -3387
l2 -3186 25 -27 c54 -59 -202 -55 3476 -55 l3386 0 38 21 c21 12 45 36 54 56
15 31 16 289 16 3211 0 3490 4 3217 -59 3357 -28 61 -102 160 -154 205 -51 44
-142 96 -213 121 l-69 24 -2985 2 c-2566 1 -2993 -1 -3044 -13z m6013 -272
c70 -24 140 -79 181 -142 61 -96 57 139 56 -3220 l-1 -3075 -3225 0 -3225 0
-1 2568 c0 1412 2 2568 5 2568 3 1 1189 2 2636 3 2469 2 2632 3 2662 19 84 45
89 173 9 230 l-31 22 -1485 2 c-817 1 -2005 2 -2641 2 l-1156 1 2 383 c1 368
2 384 23 438 23 57 84 131 137 164 16 10 54 26 83 35 49 15 291 16 2995 15
2178 -1 2951 -5 2976 -13z"/>
<path d="M1060 6606 c-252 -55 -391 -337 -282 -570 96 -206 346 -296 547 -197
148 73 235 219 230 382 -9 256 -244 439 -495 385z m188 -310 c17 -20 32 -44
33 -53 0 -10 2 -25 4 -34 1 -9 -5 -35 -15 -57 -58 -129 -246 -94 -256 47 -9
128 146 192 234 97z"/>
<path d="M2105 6606 c-117 -28 -223 -114 -277 -226 -29 -60 -32 -73 -32 -170
-1 -95 2 -111 27 -164 112 -240 390 -320 604 -176 252 170 237 540 -28 693
-81 47 -203 65 -294 43z m181 -297 c53 -49 61 -121 20 -184 -34 -52 -117 -69
-173 -35 -94 57 -93 182 2 239 33 19 121 8 151 -20z"/>
<path d="M3172 6609 c-143 -27 -257 -126 -308 -267 -24 -64 -26 -82 -22 -157
23 -359 451 -517 702 -259 74 76 115 184 111 295 -10 251 -238 435 -483 388z
m171 -308 c65 -70 46 -175 -39 -216 -124 -59 -245 93 -163 204 48 66 147 71
202 12z"/>
<path d="M6070 5674 c-47 -20 -72 -57 -78 -113 -10 -110 117 -185 207 -122
134 96 22 301 -129 235z"/>
<path d="M810 5032 c-19 -11 -42 -35 -52 -54 -18 -34 -19 -84 -19 -997 -1
-922 0 -962 18 -993 10 -18 36 -41 56 -52 37 -18 123 -18 2692 -18 2593 0
2655 0 2687 19 18 10 41 33 51 50 17 30 18 78 18 994 0 913 -1 963 -19 997
-10 19 -33 43 -52 54 -33 17 -83 18 -1055 18 -951 0 -1022 -1 -1055 -18 -69
-34 -94 -131 -50 -192 47 -67 -13 -63 1022 -63 l938 0 0 -793 0 -794 -2490 0
-2490 0 0 794 0 794 949 -1 c891 0 950 1 978 18 36 21 59 57 67 105 8 45 -17
97 -63 127 l-34 23 -1031 0 c-983 0 -1033 -1 -1066 -18z"/>
<path d="M3455 5031 c-83 -50 -92 -159 -17 -221 43 -35 106 -41 153 -13 40 24
73 94 65 137 -18 93 -124 145 -201 97z"/>
<path d="M850 2431 c-35 -4 -77 -37 -96 -73 -14 -26 -16 -119 -15 -774 0 -701
1 -745 18 -774 10 -17 32 -40 49 -51 30 -18 58 -19 780 -19 725 0 750 1 781
20 69 42 66 5 67 810 1 399 -3 741 -7 760 -10 40 -41 78 -77 92 -23 10 -1435
19 -1500 9z m1310 -845 l0 -575 -575 0 -575 -1 0 575 0 575 575 0 575 0 0
-574z"/>
<path d="M2782 2433 c-4 -1 -19 -4 -35 -7 -39 -9 -84 -61 -91 -104 -10 -65 -5
-1455 5 -1488 5 -17 23 -44 40 -60 l30 -29 758 -3 758 -2 34 23 c71 47 68 6
68 826 -1 777 0 763 -45 808 -34 34 -62 36 -792 37 -397 1 -725 0 -730 -1z
m1290 -285 c2 -7 3 -265 3 -573 l-1 -560 -574 0 -574 0 -1 573 0 572 571 0
c449 0 573 -3 576 -12z"/>
<path d="M4673 2427 c-47 -9 -88 -48 -100 -97 -5 -19 -8 -361 -8 -760 2 -805
-1 -768 68 -810 31 -19 56 -20 781 -20 743 0 749 0 783 21 67 42 64 1 64 825
0 703 -1 748 -19 777 -10 17 -33 40 -52 51 -33 19 -54 20 -756 21 -397 0 -740
-3 -761 -8z m1317 -842 l0 -575 -575 0 -575 0 0 575 0 575 575 0 575 0 0 -575z"/>
</g>
</svg>
